PathFileType	4	(X/Y/Z)	C:/Users/beibeiliu/ov580/test_trc/User2\sequence.36_training_dense_left.trc
DataRate	CameraRate	NumFrames	NumMarkers	Units	OrigDataRate	OrigDataStartFrame	OrigNumFrames
120	120	19	19	mm	120	126	500
Frame#	Time	ThumbCMC			ThumbMCP			ThumbIP			ThumbTip			IndexMCP			IndexPIP			IndexTip			MiddleMCP			MiddlePIP			MiddleTip			RingMCP			RingPIP			RingTip			PinkyMCP			PinkyPIP			PinkyTip			BackHand1			BackHand2			BackHand3	
		X0	Y0	Z0	X1	Y1	Z1	X2	Y2	Z2	X3	Y3	Z3	X4	Y4	Z4	X5	Y5	Z5	X6	Y6	Z6	X7	Y7	Z7	X8	Y8	Z8	X9	Y9	Z9	X10	Y10	Z10	X11	Y11	Z11	X12	Y12	Z12	X13	Y13	Z13	X14	Y14	Z14	X15	Y15	Z15	X16	Y16	Z16	X17	Y17	Z17	X18	Y18	Z18	
125	1.04167	-222.411	-24.3705	70.7885	-199.589	-7.41533	46.4552	-171.844	-5.94362	22.2753	-146.877	-17.9908	13.8414	-198.243	-71.8701	9.58671	-175.534	-66.2334	-14.8784	-150.545	-39.7784	-14.9052	-174.122	-84.5174	10.7657	-146.68	-68.674	-6.25661	-130.485	-33.8322	1.06474	-155.46	-90.0619	29.6266	-134.842	-70.1479	8.47463	-124.112	-37.9689	15.4732	-144.815	-88.4016	53.2751	-124.849	-74.7181	28.9415	-115.145	-46.8505	24.4695	-190.243	-89.2676	81.0946	-206.327	-82.7592	108.982	-225.09	-67.5303	79.2713	
126	1.05	-222.336	-25.8862	70.7716	-200.693	-12.2058	47.6293	-172.04	-10.4096	18.6918	-147.542	-21.4712	12.7517	-194.936	-75.1755	5.93216	-173.674	-66.9919	-14.5358	-148.665	-38.8553	-11.9815	-174.091	-87.0457	17.2925	-150.308	-71.2497	-7.00774	-133.585	-35.9008	-0.820308	-151.257	-89.3977	27.0472	-133.633	-70.7719	12.0823	-126.829	-38.0814	16.2015	-142.685	-89.9476	53.8222	-127.364	-75.752	29.9025	-118.272	-44.1746	26.3961	-190.044	-91.6272	79.6559	-205.132	-80.7735	113.162	-222.696	-72.9935	78.6786	
127	1.05833	-223.412	-27.694	71.428	-201.6	-10.0337	44.4506	-173.588	-12.6219	22.1628	-145.963	-24.8601	10.3818	-192.555	-76.6111	8.76023	-173.428	-68.0683	-13.1247	-148.877	-39.232	-12.2117	-173.211	-86.002	12.068	-146.67	-68.8658	-5.38953	-131.836	-33.2262	3.11915	-152.516	-88.3105	27.8984	-131.989	-70.9657	14.1093	-129.122	-32.7915	17.7068	-141.652	-89.5283	53.6144	-121.779	-74.4108	32.0777	-119.549	-41.7825	27.4973	-191.672	-89.2874	84.0152	-204.458	-84.6478	109.837	-221.23	-74.2895	78.9104	
128	1.06667	-222.834	-27.8193	72.3841	-201.089	-11.2179	45.1327	-172.779	-12.5326	21.0889	-147.865	-21.2362	12.8739	-193.566	-76.4723	11.8826	-170.551	-68.2174	-12.6205	-153.776	-41.8991	-14.8319	-169.705	-86.369	13.9153	-145.76	-68.7251	-6.19671	-130.763	-34.428	4.91776	-149.809	-87.9483	27.848	-131.706	-70.9063	14.1256	-128.109	-32.2199	20.0068	-144.229	-87.5014	54.0887	-121.027	-71.7216	31.9275	-121.358	-37.9883	28.5519	-188.571	-89.74	82.2088	-204.253	-84.141	113.163	-224.612	-71.9447	81.0049	
129	1.075	-222.745	-27.1004	71.4167	-199.569	-12.244	45.5908	-171.083	-13.5207	19.5725	-149.435	-21.287	15.3887	-196.489	-74.3585	10.7354	-170.16	-66.399	-14.3811	-152.994	-41.7635	-15.302	-169.3	-86.7883	17.6896	-144.88	-67.3773	-4.90287	-130.58	-33.142	4.11248	-149.488	-86.5679	29.3301	-129.6	-68.4312	14.4531	-126.729	-32.7904	20.4843	-141.123	-87.8127	54.1824	-123.112	-69.8558	31.0869	-120.566	-36.9181	27.7444	-189.297	-89.5239	82.8505	-205.673	-82.8734	111.263	-223.919	-70.6853	77.8093	
130	1.08333	-221.66	-28.2183	69.9964	-199.484	-12.7771	42.1507	-171.114	-11.4178	20.043	-146.917	-21.0219	12.1207	-196.771	-74.2341	10.4737	-170.215	-69.0689	-13.2177	-149.8	-40.1299	-13.0381	-171.429	-85.0774	14.6068	-145.21	-68.5363	-4.78222	-132.354	-33.4025	3.06052	-151.535	-87.5075	32.592	-132.244	-64.1808	11.4625	-127.968	-29.4348	19.8611	-142.035	-85.2924	50.6281	-124.659	-68.8606	30.949	-119.499	-37.3001	28.9465	-186.768	-91.6865	80.5137	-202.272	-81.5507	111.245	-223.966	-70.5791	80.8479	
131	1.09167	-221.218	-27.6535	72.7512	-199.454	-12.0455	44.9399	-173.646	-8.15736	21.5889	-146.875	-19.2482	14.49	-193.748	-75.1674	9.20126	-172.787	-70.3523	-12.603	-149.812	-43.7957	-12.0392	-169.758	-85.7296	13.6807	-144.549	-66.9129	-5.03354	-131.095	-30.3377	5.85276	-150.569	-85.5823	30.3062	-129.062	-66.0843	13.0818	-124.964	-32.9686	20.2974	-144.322	-83.7411	50.6134	-122.579	-67.8582	31.6227	-116.027	-35.0402	27.8449	-185.928	-89.5552	83.8988	-204.621	-82.2567	110.397	-222.378	-70.6555	81.7489	
132	1.1	-221.533	-28.2528	70.7193	-199.738	-9.53531	42.5022	-173.135	-8.51853	19.5292	-148.354	-16.3114	13.3361	-192.566	-75.4008	11.2606	-168.99	-70.2924	-11.5819	-150.469	-42.7875	-14.214	-168.998	-84.9942	12.8749	-142.755	-66.6044	-4.1582	-131.585	-28.4568	5.88287	-153.196	-84.5984	26.2441	-129.953	-65.0181	12.1484	-128.313	-31.8415	16.7375	-144.285	-83.4689	50.021	-123.547	-66.32	28.992	-117.662	-35.6031	27.6661	-186.156	-87.2829	79.7796	-205.028	-80.4999	113.141	-222.462	-72.0333	75.6497	
133	1.10833	-223.298	-25.7919	68.5812	-202.413	-7.46454	45.0579	-173.541	-6.43628	22.7168	-145.534	-17.0737	12.1602	-195.247	-73.9365	10.8283	-170.415	-68.8888	-11.2699	-150.15	-40.012	-14.7651	-170.609	-85.262	14.6006	-147.627	-66.676	-7.52279	-131.816	-32.5501	3.49819	-151.946	-87.6309	32.0393	-134.055	-68.4637	10.599	-129.15	-31.4362	16.3679	-141.619	-84.8882	52.2512	-121.905	-70.3526	29.9996	-119.176	-40.8546	24.6255	-188.768	-87.7238	83.9927	-203.533	-81.4263	112.409	-221.773	-71.8348	79.9245	
134	1.11667	-223.18	-25.596	72.451	-199.004	-10.3241	45.0394	-172.319	-6.1369	23.3592	-146.635	-13.4874	16.0074	-194.478	-74.2531	10.9967	-172.252	-64.7881	-16.7837	-150.795	-42.2009	-15.1834	-173.334	-85.3922	13.0725	-147.536	-71.6497	-7.33538	-136.076	-31.4426	-0.979099	-152.589	-88.1466	30.6724	-133.998	-69.7084	8.66714	-126.246	-33.3651	15.1395	-140.757	-86.505	49.381	-125.07	-69.5241	25.921	-119.817	-40.816	20.4803	-184.562	-86.7246	79.8222	-203.326	-82.9969	107.407	-222.644	-72.4707	76.5963	
135	1.125	-225.734	-26.2335	73.9759	-202.731	-7.05506	47.0507	-172.088	-4.2479	23.852	-145.776	-9.9847	14.6432	-192.091	-74.8983	7.73091	-169.282	-67.0863	-13.8604	-149.437	-40.9123	-16.3099	-172.712	-86.1596	14.4688	-149.796	-72.1039	-8.58307	-132.395	-32.3268	0.0350859	-154.733	-86.4795	26.8759	-130.885	-70.4821	8.73212	-127.711	-35.6149	10.0794	-143.994	-82.9494	53.7563	-122.482	-70.4645	27.1185	-115.928	-43.0929	19.157	-186.572	-86.1512	81.362	-197.314	-83.375	109.864	-221.657	-72.3	77.9905	
136	1.13333	-221.378	-29.9358	71.8899	-200.592	-9.19109	45.4171	-174.965	-1.34152	25.5062	-145.383	-10.6852	16.3445	-192.355	-75.5742	7.96639	-170.299	-69.633	-13.4283	-150.776	-44.2252	-18.1247	-171.919	-87.4856	14.6302	-148.168	-71.8182	-9.4912	-136.364	-33.3124	-5.5309	-152.843	-87.3165	31.6472	-133.987	-75.096	10.1259	-125.24	-36.8056	9.19637	-140.064	-83.5851	50.4146	-120.181	-70.9032	29.86	-115.987	-38.9998	18.3383	-186.655	-84.1807	83.5335	-197.609	-83.2879	111.604	-218.864	-74.1348	79.1929	
137	1.14167	-222.39	-31.8013	72.3485	-203.006	-8.72291	47.4955	-171.653	-5.66887	26.782	-144.729	-12.9995	21.0044	-194.118	-76.3309	12.2117	-173.128	-68.3279	-16.2688	-154.336	-41.625	-21.942	-172.407	-86.7549	18.6712	-146.956	-72.5575	-9.60125	-132.721	-36.0076	-4.67659	-150.904	-87.9531	34.6242	-130.178	-74.8915	11.9444	-126.784	-36.4087	7.31667	-140.201	-81.1187	51.994	-120.406	-67.032	29.249	-116.766	-41.6848	19.24	-184.614	-85.7395	84.033	-197.261	-81.1168	112.962	-220.644	-75.0311	78.2885	
138	1.15	-224.263	-31.2816	74.9845	-202.86	-10.5572	48.9896	-170.46	-5.23922	24.2264	-144.196	-12.2549	21.6392	-191.952	-77.9378	10.5954	-168.835	-69.8924	-14.1958	-153.015	-39.8478	-21.4177	-167.128	-89.5364	17.1855	-144.987	-72.1667	-8.17245	-133.666	-36.2606	-6.18614	-151.804	-87.4801	34.382	-132.087	-73.321	10.1003	-123.957	-39.3673	9.23675	-140.835	-79.4404	50.0273	-119.937	-64.9181	28.7907	-118.218	-39.3117	20.1261	-179.963	-88.5824	82.2351	-198.183	-81.1007	114.533	-219.279	-75.9675	77.1476	
139	1.15833	-225.344	-31.4429	70.7743	-202.121	-11.5884	45.2228	-170.506	-8.41429	27.1804	-146.933	-15.0676	26.1771	-192.562	-77.9751	8.96423	-170.157	-68.6103	-15.9761	-152.688	-43.8615	-19.3336	-163.816	-90.4248	17.3042	-144.868	-75.6622	-6.00571	-135.152	-37.1761	-6.79685	-148.657	-86.5619	32.4872	-128.708	-70.1181	10.2805	-128.398	-35.186	8.61328	-140.204	-78.5941	55.7981	-120.603	-65.2399	31.1043	-118.113	-33.2289	23.3572	-182.418	-85.2259	85.8221	-194.787	-84.1195	110.894	-217.217	-76.4077	81.7074	
140	1.16667	-224.062	-33.9861	71.2116	-203.159	-11.744	45.7845	-170.387	-8.68059	26.6205	-141.771	-19.3108	25.7639	-188.075	-78.9891	11.071	-166.301	-69.8104	-14.2343	-150.09	-43.1543	-18.5001	-167.051	-88.4804	19.174	-142.078	-74.6013	-5.26303	-135.62	-33.7553	-4.31118	-149.462	-86.345	31.9106	-130.004	-67.3534	8.66175	-130.854	-33.2008	10.1291	-137.947	-77.8726	53.2052	-120.761	-62.7716	30.0995	-122.256	-34.9202	22.2631	-180.764	-85.2862	84.5797	-197.203	-81.2719	114.662	-219.226	-78.437	77.318	
141	1.175	-225.461	-33.0336	71.0869	-201.303	-14.5209	46.3336	-171.068	-8.25234	24.8398	-144.824	-19.0282	28.284	-190.984	-77.8787	11.2545	-169.765	-71.6593	-12.6822	-152.308	-39.9565	-20.8943	-165.02	-89.7296	20.6246	-142.982	-70.4848	-8.72102	-136.483	-34.4294	-4.94188	-143.901	-85.9758	31.7435	-127.559	-67.8099	12.6049	-127.655	-34.0391	13.8048	-134.881	-78.7386	50.8672	-120.611	-63.1062	30.1884	-121.203	-28.8679	20.7038	-177.972	-86.1543	81.264	-193.632	-84.1505	111.393	-215.401	-77.0215	80.0874	
142	1.18333	-227.123	-32.0098	72.2956	-201.417	-14.6785	45.7278	-169.328	-10.3266	26.2523	-143.17	-22.7511	30.9134	-190.135	-79.6224	12.092	-166.171	-71.9449	-11.6931	-151.03	-43.8847	-17.8412	-165.212	-88.4941	16.8153	-140.776	-72.3909	-5.20089	-136.063	-31.3663	1.50871	-147.685	-84.5987	32.2369	-127.194	-66.72	12.9325	-133.751	-28.4276	13.4239	-134.015	-78.1403	51.225	-123.19	-60.7226	28.3703	-119.107	-29.615	22.6069	-179.571	-86.1354	82.8135	-191.866	-85.1151	112.268	-215.135	-78.4415	81.704	
143	1.19167	-225.681	-34.3338	71.2304	-200.235	-16.7371	46.7421	-169.682	-11.735	27.2617	-143.12	-24.6807	31.9687	-189.261	-79.0715	11.7685	-167.624	-72.8266	-12.2377	-152.174	-42.6575	-18.644	-161.357	-89.7603	17.7903	-139.615	-69.7698	-4.60446	-139.588	-30.4112	0.323519	-146.349	-84.6609	33.5816	-126.12	-63.3139	12.1312	-129.898	-31.8461	13.7783	-135.916	-77.0801	55.3752	-122.95	-59.4886	28.759	-121.426	-25.1603	25.1717	-180.272	-87.9927	80.9743	-191.738	-84.2269	113.465	-213.821	-77.5071	81.661	
